<?xml version="1.0" encoding="utf-8"?>
<svg viewBox="301.108 29.038 129.921 133.32" xmlns="http://www.w3.org/2000/svg">
  <path d="M 366.729 102.918 L 301.379 102.918 L 301.379 29.038 L 430.819 29.038 L 430.819 54.738 L 367.419 54.738 C 366.879 55.528 366.569 55.778 366.549 56.048 C 366.062 63.101 369.309 66.628 376.289 66.628 C 391.619 66.628 406.959 66.628 422.289 66.628 C 428.789 66.628 431.575 70.238 430.649 77.458 L 366.729 77.458 L 366.729 89.348 L 431.029 89.348 L 431.029 162.358 L 301.149 162.358 C 301.149 154.898 300.969 147.598 301.359 140.338 C 301.409 139.358 304.359 137.778 305.979 137.768 C 324.139 137.578 342.309 137.648 360.479 137.648 C 362.449 137.648 364.419 137.648 366.719 137.648 L 366.719 126.038 L 301.469 126.038 L 301.469 115.568 L 366.729 115.568 L 366.729 102.928 L 366.729 102.918 Z" style="fill: rgb(255, 140, 52);"/>
</svg>