<svg version="1.2" xmlns="http://www.w3.org/2000/svg" viewBox="0 0 219 219" width="219" height="219">
	<title>Nuovo progetto-v3-svg</title>
	<style>
		.s0 { fill: #ffffff } 
		.s1 { fill: #d57b00 } 
	</style>
	<path id="Layer" class="s0" d="m111.3 110.2h-65.4v-73.9h129.5v25.7h-63.5c-0.5 0.8-0.8 1-0.8 1.3q-0.8 10.6 9.7 10.6 23 0 46 0 9.8 0 8.4 10.8h-63.9v11.9h64.3v73h-129.9c0-7.5-0.2-14.8 0.2-22 0-1 3-2.6 4.6-2.6 18.2-0.2 36.3-0.1 54.5-0.1 2 0 4 0 6.3 0v-11.6h-65.3v-10.5h65.3c0 0 0-12.6 0-12.6z"/>
	<path id="Layer" class="s0" d="m170.3 74.2h4.9v10.1h-4.9z"/>
	<path id="Layer" class="s0" d="m46 133.3h65.2v1.5h-65.2z"/>
	<path id="Layer" class="s1" d="m26 110.2h85.2v12.6h-85.2z"/>
	<path id="Layer" class="s1" d="m26 134.8h85.2v12.7h-85.2z"/>
	<path id="Layer" class="s1" d="m175.5 110.2h19.7v12.6h-19.7z"/>
	<path id="Layer" class="s1" d="m175.5 134.8h19.7v12.7h-19.7z"/>
	<path id="Layer" class="s1" d="m111 84.3h85.2v12.6h-85.2z"/>
	<path id="Layer" class="s1" d="m110.9 61.6h85.3v12.6h-85.3z"/>
	<path id="Layer" class="s1" d="m26.3 61.6h19.6v12.6h-19.6z"/>
	<path id="Layer" class="s1" d="m26.3 83.4h19.6v12.6h-19.6z"/>
</svg>