<?xml version="1.0" encoding="UTF-8"?>
<svg id="Layer_1" data-name="Layer 1" xmlns="http://www.w3.org/2000/svg" viewBox="0 0 739.12 218.48">
  <defs>
    <style>
      .cls-1 {
        fill: #fff;
      }

      .cls-2 {
        fill: #d57b00;
      }
    </style>
  </defs>
  <path class="cls-1" d="M85.26,92.15H19.9V18.27H149.35v25.7h-63.4c-.54,.79-.85,1.04-.87,1.31-.49,7.05,2.76,10.58,9.74,10.58h46c6.5,0,9.29,3.61,8.36,10.83h-63.92v11.89h64.3v73.01H19.68c0-7.46-.18-14.76,.21-22.02,.05-.98,3-2.56,4.62-2.57,18.16-.19,36.33-.12,54.5-.12h6.24v-11.61H20v-10.47H85.26v-12.64h0Z"/>
  <path d="M403.56,126.68c2.37-11.17,4.67-21.66,6.77-32.18,.74-3.72,1.37-7.53,1.42-11.31,.06-5.5-4.36-8.36-8.61-5.03-3.84,3-7.52,7.38-9.05,11.9-3.22,9.53-5.1,19.52-7.29,29.38-1.61,7.24-1.44,7.27-8.68,7.27h-9.36c4.43-20.89,8.75-41.25,13.09-61.67h12.22c-.15,3.37-.3,6.69-.47,10.54,16.93-16.36,26.75-16.2,34.67,.31,2.83-2.86,5.29-6.05,8.41-8.35,9.26-6.85,26.16-5.55,26.35,12.06,.05,4.42-.49,8.92-1.33,13.27-2.16,11.21-4.64,22.37-7.02,33.65h-16.23c1.3-6.49,2.52-12.7,3.8-18.9,1.41-6.82,3.02-13.61,4.26-20.46,.65-3.61,1.06-7.65-3.11-9.6-4.02-1.89-7.1,.59-9.6,3.36-5.68,6.33-7.23,14.42-8.97,22.37-1.46,6.64-2.61,13.34-4.16,19.95-.3,1.29-1.72,3.21-2.74,3.29-4.58,.36-9.21,.16-14.36,.16h-.01Z"/>
  <path d="M246.67,46.75c10.55,0,20.58-.83,30.41,.21,12.52,1.32,20.02,9.37,21.93,21.7,2.48,16.07-.29,31.21-10.88,44.1-5.92,7.2-13.98,11.62-23.12,12.61-11.51,1.26-23.16,1.27-35.36,1.85,5.86-27.72,11.51-54.41,17.02-80.47h0Zm2.87,65.33c12.25,1.66,21.59-1.9,26.92-11.1,6.27-10.84,9.17-22.53,3.66-34.63-2.48-5.45-10.57-8.3-17.5-6.52-4.75,1.22-2.31,6.24-3.91,9.23-.3,.56-.33,1.28-.47,1.93-2.88,13.58-5.75,27.16-8.7,41.1h0Z"/>
  <path d="M522.82,46.51c10.48,0,20.48-.59,30.38,.17,9.62,.74,16.59,6.03,18.5,15.99,2.2,11.44-.2,21.49-10.38,28.59-8.36,5.83-17.97,6.57-27.66,6.54-3.72-.01-5.53,.62-6.15,4.91-1.14,7.86-3.24,15.57-5,23.66h-16.55c5.67-26.85,11.31-53.55,16.87-79.86h-.01Zm8.9,37.17c6.92,.45,13.22,.74,18.74-3.28,4.43-3.22,6.23-8.99,4.69-14.21-1.58-5.36-5.68-6.43-10.49-6.44-1.5,0-3.15-.43-4.46,.06-1.55,.58-3.71,1.71-4.04,3-1.72,6.72-2.94,13.56-4.44,20.87Z"/>
  <path d="M673.02,152.33v-12.35c.45-.08,.88-.25,1.29-.22,10.12,.83,12.52-.77,14.76-10.87,3.75-16.94,7.27-33.94,11-51.42-3.09-.18-5.66-.33-8.23-.48-.76-5.4,1.25-8.71,6.39-10.08,3.6-.96,4.97-3.42,5.77-7.1,3.88-17.81,18.42-24.85,35.12-16.79-1.28,3.77-2.58,7.62-3.86,11.42-11.44-2.23-14.97,.07-15.36,10.27h11.33c-.76,3.83-1.18,7.06-2.14,10.14-.31,1-1.91,1.95-3.08,2.24-1.57,.38-3.32,.25-4.97,.07-3.49-.38-4.75,.94-5.46,4.54-3.34,16.89-7.16,33.69-10.74,50.53-3.8,17.88-13.36,24.09-31.81,20.11h-.01Z"/>
  <path d="M623.74,102.68c.12-9.49,2.16-18.43,7.67-26.35,7.48-10.74,21.78-15.55,34.04-11.23,7.49,2.64,11.78,8.17,13.53,15.93,3.49,15.48-3.05,34.33-14.69,41.81-12.03,7.73-28.44,6.33-35.64-3.93-3.15-4.48-4.23-10.42-6.25-15.69,.45-.18,.89-.37,1.34-.55h0Zm39.24-12.73c.27-8.2-1.21-11.22-6.12-12.53-4.61-1.23-9.76,1.37-12.09,7.95-2.27,6.4-3.15,13.34-4.12,20.12-.53,3.7,1.2,7.11,5.04,8.21,4.32,1.24,8.18-.04,11.09-3.72,4.66-5.89,6.05-12.77,6.2-20.04h0Z"/>
  <path d="M354.26,111.01c.16,.82,.26,1.15,.28,1.48,.44,11.1-.32,12.38-11.28,14.08-5.18,.81-10.61,.86-15.83,.34-9.92-.98-16.67-7.01-18.23-16.96-2.57-16.38,3.51-34.51,18.47-42.53,7.7-4.12,15.86-4.65,24.17-2.47,6.32,1.66,10.46,5.78,11.59,12.32,1.12,6.51-.67,12.28-5.79,16.62-7.39,6.26-16.49,7.27-25.67,8.03-2.28,.19-4.51,.97-6.77,1.48,1.31,3.23,1.82,8.31,4.11,9.31,4.22,1.84,9.51,1.83,14.3,1.57,3.48-.19,6.87-2.05,10.65-3.27h0Zm-26.81-20.14c2.06,0,3.74,.2,5.35-.04,5.04-.76,10.58-.95,13.5-5.97,1.08-1.85,1.35-4.91,.57-6.86-.51-1.28-3.53-2.14-5.45-2.19-6.34-.14-12.38,6.41-13.97,15.05h0Z"/>
  <path d="M587.16,65.03h12.51c-.32,3.52-.63,6.88-.94,10.23,6.6-7.46,13.67-13.25,24.95-10.88-1.13,5.06-2.25,10.12-3.36,15.11-13.94-.28-20.34,4.7-23.53,18.38-2.21,9.49-4.18,19.03-6.27,28.66h-16.28c4.34-20.64,8.6-40.91,12.93-61.5h0Z"/>
  <path d="M500.88,64.89c-4.43,20.83-8.75,41.19-13.1,61.64h-16.23c1.14-5.86,2.15-11.43,3.33-16.98,2.92-13.78,5.86-27.56,8.99-41.29,.3-1.29,1.98-3.12,3.14-3.22,4.44-.38,8.94-.15,13.87-.15h0Z"/>
  <path d="M200.02,0h5.19V169.87h-5.19V0Z"/>
  <path d="M206.1,190.28c.76-1.25,1.53-2.53,2.3-3.8,.65,.24,1.3,.48,1.96,.73-2.23,8.68-3.81,17.6-6.92,25.95-2.01,5.4-14.29,6.99-19.17,3.37-.62-.46-.77-1.54-1.13-2.33,.83-.05,1.71-.3,2.49-.11,2.23,.53,4.4,1.65,6.63,1.78,6.36,.35,9.5-2.61,10.4-9.19-3.06,.72-6.26,2.34-9.17,1.91-2.94-.43-6.37-2.28-8.17-4.61-3.13-4.03-1.32-10.56,2.98-14.3,5.16-4.48,11.46-4.23,17.81,.61h-.01Zm-11.55,15.71c6.03,.04,10.18-3.91,10.24-9.77,.04-4.58-2.69-7.24-7.53-7.32-5.43-.09-10.36,4.61-10.45,9.95-.07,4.33,2.94,7.11,7.75,7.14h-.01Z"/>
  <path d="M560.49,187.25c-2.24,8.67-3.84,17.58-6.97,25.92-2.01,5.37-14.29,6.94-19.2,3.35-.62-.45-.77-1.53-1.14-2.32,.82-.07,1.69-.35,2.45-.16,2.07,.52,4.05,1.62,6.12,1.8,6.66,.57,10.17-2.57,11.04-8.62-3.88,.3-7.97,1.01-11.99,.75-1.8-.12-3.94-1.84-5.1-3.44-3.15-4.33-1.8-10.79,2.67-14.8,5.09-4.56,11.51-4.33,17.92,.64,.6-1.28,1.2-2.56,1.8-3.85,.8,.24,1.61,.48,2.41,.72h0Zm-15.5,18.76c5.98-.08,10-4.17,9.89-10.07-.09-4.56-2.91-7.1-7.79-7.02-5.43,.09-10.36,5.05-10.19,10.25,.14,4.25,3.28,6.9,8.09,6.84h0Z"/>
  <path d="M392.39,205.6c-.75,1.6-1.42,3.05-2.56,5.49-1.64-7.1,4.43-32.93,7.8-34.04-.68,3.86-1.31,7.51-1.97,11.24,3.36-.62,6.62-2.07,9.49-1.52,2.9,.56,6.32,2.5,7.92,4.89,3.02,4.51,.35,12.36-4.47,15.88-5.1,3.73-11.02,3.07-16.22-1.94h.01Zm9,1.48c5.71-.08,9.67-4.33,9.67-10.38,0-4.98-2.75-7.8-7.6-7.79-5.77,0-9.93,4.56-9.86,10.8,.06,5.11,2.52,7.44,7.79,7.37h0Z"/>
  <path d="M497.22,40.77c5.36,.05,7.79,2.16,7.76,6.76-.04,6.06-3.49,9.39-9.68,9.33-5.28-.05-8.22-2.58-8.28-7.15-.08-5.51,3.89-9,10.2-8.95h0Z"/>
  <path d="M145.31,190.22c.94-1.29,1.88-2.58,2.81-3.87l1.41,.66c-1.37,7.18-2.71,14.36-4.18,21.51-.11,.53-1.19,.86-1.83,1.28-.43-.8-.86-1.59-1.3-2.41-8.58,3.52-14.11,2.92-17.08-1.92-2.91-4.75-1.25-12.28,3.58-16.18,5.1-4.12,11.45-3.75,16.58,.93h0Zm-10.57,16.87c5.75-.09,10.17-4.82,10-10.68-.13-4.57-3.42-7.62-8.08-7.49-5.48,.16-10,5.12-9.92,10.89,.07,4.8,2.88,7.37,7.99,7.28h0Z"/>
  <path d="M495.36,190.14c1.25-1.45,2.23-2.6,3.22-3.74,.35,.21,.71,.42,1.06,.63-1.32,6.93-2.6,13.87-4.02,20.77-.15,.75-1.14,1.33-1.75,1.99-.55-.85-1.1-1.69-1.66-2.55-7.91,3.81-13.78,3.25-16.81-1.65-3.01-4.87-1.54-11.98,3.35-16.19s11.46-3.93,16.62,.74h-.01Zm-10.69,16.95c5.88,.02,10.16-4.41,10.12-10.47-.03-4.68-3.09-7.7-7.82-7.7-5.47,0-10.13,4.9-10.17,10.69-.03,4.73,2.85,7.46,7.86,7.48h.01Z"/>
  <path d="M564.68,209.26c2.65-10.76,3.54-21.96,7.16-32.47,.66,.14,1.32,.28,1.98,.42-.64,3.79-1.27,7.59-1.83,10.94,3.37-.49,6.66-1.34,9.95-1.35,4.69-.02,7.09,3.08,6.71,7.46-.41,4.75-1.65,9.43-2.72,14.1-.16,.71-1.34,1.19-3.15,2.7,1-5.35,1.54-9.22,2.47-12.98,.87-3.52,1.1-6.64-2.73-8.51-3.29-1.6-8.61-.24-10.4,3.41-1.7,3.48-2.28,7.49-3.39,11.26-.6,2.02-1.28,4.01-1.92,6.01-.71-.33-1.42-.66-2.13-.98h0Z"/>
  <path d="M221.83,188.08c3.7-.48,7.05-1.34,10.38-1.23,4.76,.15,6.75,3.63,6.39,7.86-.37,4.43-1.6,8.79-2.65,13.14-.21,.88-1.28,1.55-1.95,2.32-.36-.21-.72-.42-1.08-.64,.7-3.85,1.19-7.74,2.16-11.52,.91-3.56,1.19-6.63-2.77-8.43-3.47-1.57-8.56-.23-10.39,3.48-1.64,3.34-2.21,7.21-3.27,10.84-.61,2.1-1.24,4.18-1.87,6.27-.76-.2-1.52-.4-2.27-.6,2.19-10.67,4.36-21.35,6.64-32.01,.07-.32,1.32-.4,2.7-.77-.77,4.25-1.44,7.92-2.05,11.28h.03Z"/>
  <path d="M421.2,198.72c1.14,8.34,1.79,8.58,16.29,6.88-2.44,4.19-8.33,5.58-13.7,3.23-4.94-2.16-6.74-7.18-4.83-13.5,1.86-6.18,7.74-9.66,14.34-8.48,5.71,1.02,7.77,4.2,7.29,11.86h-19.39Zm.91-2.18h15.92c.24-4.8-1.98-7.13-6.23-7.59-4.92-.52-8.4,2.23-9.7,7.59h.01Z"/>
  <path d="M297.78,196.2c.03,7.88-5.58,13.67-13.26,13.69-6.21,.02-10.61-4.19-10.54-10.07,.09-7.37,6.1-13.49,13.26-13.48,6.51,0,10.52,3.75,10.54,9.86h0Zm-2.99,.74c.11-4.95-2.56-7.88-7.29-8.03-5.69-.17-10.62,4.86-10.59,10.81,.02,4.32,3.05,7.26,7.57,7.36,6.04,.13,10.19-3.94,10.32-10.14h-.01Z"/>
  <path d="M348.77,199.93c-.03-7.67,5.33-13.29,12.87-13.46,6.34-.15,10.95,3.92,10.92,9.64-.03,7.63-5.95,13.73-13.4,13.79-6.38,.06-10.36-3.77-10.39-9.98h0Zm10.6,7.18c5.65,0,10.35-4.96,10.17-10.7-.14-4.5-3.11-7.4-7.66-7.48-5.64-.1-10.13,4.58-10.18,10.63-.04,5.12,2.44,7.57,7.67,7.56h0Z"/>
  <path d="M511.27,187.14c-.63,3.51-1.18,7.03-1.92,10.52-.75,3.51-1.69,7.15,2.52,9.05,4.06,1.83,9.52-.37,11.24-4.76,1.37-3.5,1.78-7.36,2.79-11.02,.43-1.56,1.29-3,1.96-4.5,.55,.21,1.1,.41,1.65,.62-1.34,7.06-2.63,14.13-4.09,21.16-.13,.63-1.34,1.05-2.05,1.56-.35-.84-.71-1.69-1.09-2.6-1.52,.7-3.1,1.6-4.79,2.17-7.09,2.39-12.53-1.89-11.59-9.22,.48-3.77,1.3-7.5,2.18-11.2,.22-.92,1.32-1.62,2.01-2.43,.39,.22,.79,.43,1.18,.65Z"/>
  <path d="M179.41,187.08c-1.39,7.06-2.73,14.12-4.24,21.16-.14,.64-1.35,1.05-2.07,1.56-.3-.8-.59-1.61-.98-2.66-1.34,.64-2.74,1.43-4.23,1.99-7.31,2.78-12.88-1.32-12.05-9.02,.41-3.78,1.28-7.52,2.14-11.23,.2-.86,1.19-1.55,1.82-2.31,.43,.17,.85,.35,1.28,.52-.68,3.63-1.49,7.25-2.01,10.91-.46,3.23-1.45,6.87,2.64,8.68,3.73,1.65,9.1,.02,10.74-3.85,1.66-3.91,2.21-8.27,3.43-12.38,.41-1.4,1.35-2.65,2.05-3.97,.5,.2,.99,.41,1.49,.61h-.01Z"/>
  <path d="M107.79,209.31c1.76-9.15,3.52-18.31,5.34-27.76-3.87-.27-7.04-.49-10.22-.71,0-.42,.02-.85,.03-1.27h24.47l.19,1.1c-2.3,.18-4.61,.57-6.9,.47-3.14-.14-4.7,.62-5.19,4.22-.93,6.87-2.52,13.65-4,20.43-.34,1.56-1.35,2.97-2.05,4.45l-1.67-.92h0Z"/>
  <path d="M465.68,186.22c2.18,.35,4.12,.66,6.3,1-.54,.91-.65,1.34-.85,1.4-2.27,.59-6.22,.63-6.56,1.76-1.46,4.84-2.09,9.98-2.33,15.05-.03,.65,4.01,1.49,6.7,3.13-2.04,.41-4.3,1.54-6.06,1.02-1.63-.49-3.78-2.69-3.85-4.24-.17-3.4,.65-6.89,1.39-10.28,.67-3.07,1.57-6-1.85-6.77,1.49-1.93,2.87-3.78,4.33-5.56,.36-.44,1.19-1.04,1.44-.9,.57,.31,1.14,.98,1.29,1.6,.22,.87,.05,1.83,.05,2.79Z"/>
  <path d="M253.1,186.33c2.22,.25,4.33,.49,7.23,.82-1.1,1.01-1.39,1.49-1.76,1.58-2.16,.49-5.96,.42-6.24,1.4-1.4,4.87-2.2,9.99-2.37,15.06-.03,.84,4.08,1.82,7.84,3.38-3.37,.45-5.97,1.56-7.82,.81-1.59-.65-3.2-3.38-3.26-5.24-.1-3.4,.68-6.91,1.6-10.23,.85-3.08,1.01-5.34-2.86-5.41,2.55-2.51,4.84-4.77,7.65-7.54v5.37h-.01Z"/>
  <path d="M595.63,188.57c2.78-2.76,4.93-4.89,7.75-7.69-.12,2.38-.18,3.74-.26,5.37,2.22,.29,4.38,.57,6.67,.87-.35,.79-.41,1.27-.6,1.32-2.4,.7-6.5,.79-6.92,2.09-1.51,4.65-2.12,9.7-2.21,14.62-.01,.89,4.06,1.86,7.9,3.49-3.5,.4-6.12,1.45-7.97,.67-1.58-.67-3.13-3.44-3.15-5.3-.05-3.42,.98-6.87,1.67-10.28,.54-2.7,1.41-5.44-2.87-5.14v-.02Z"/>
  <path d="M332.5,188.55c2.67-2.62,4.91-4.81,7.95-7.79-.24,2.62-.37,4-.5,5.51,2.37,.29,4.5,.55,7.44,.91-1.15,.99-1.45,1.46-1.84,1.55-2.16,.5-5.96,.46-6.23,1.44-1.38,4.89-2.14,10.03-2.32,15.11-.03,.77,4.14,1.69,6.7,3.54-2.32,.25-4.98,1.29-6.86,.49-1.57-.67-3.08-3.48-3.11-5.36-.06-3.42,.74-6.92,1.68-10.25,.88-3.11,.7-5.11-2.9-5.14h-.01Z"/>
  <path d="M317.68,186.23c0,1.6,.03,1.9,0,1.91-9.91,2.23-10.54,10.48-11.97,18.28-.24,1.31-1.13,2.49-1.72,3.73-.59-.19-1.18-.38-1.76-.57,1.44-7.13,2.85-14.27,4.39-21.38,.12-.56,1.09-.94,1.66-1.41,.43,.75,.86,1.5,1.22,2.13,2.5-.82,5.16-1.7,8.19-2.7h-.01Z"/>
  <rect class="cls-2" y="92.15" width="85.23" height="12.64"/>
  <rect class="cls-2" y="116.84" width="85.23" height="12.64"/>
  <rect class="cls-1" x="20" y="115.27" width="65.23" height="1.58"/>
  <rect class="cls-2" x="149.53" y="92.15" width="19.64" height="12.64"/>
  <rect class="cls-2" x="149.53" y="116.84" width="19.64" height="12.64"/>
  <rect class="cls-2" x="84.99" y="66.28" width="85.23" height="12.64"/>
  <rect class="cls-2" x="84.94" y="43.59" width="85.23" height="12.64"/>
  <rect class="cls-1" x="144.26" y="56.24" width="4.98" height="10.04"/>
  <rect class="cls-2" x=".31" y="43.59" width="19.64" height="12.64"/>
  <rect class="cls-2" x=".26" y="65.36" width="19.68" height="12.64"/>
</svg>